<svg xmlns="http://www.w3.org/2000/svg" viewBox="-18 -3 311 50" id="el_V4ButBp7e" height="50" width="311"><style>@-webkit-keyframes kf_el_b2b7SB0TDf_an_1QgAnjRx9{8.89%{-webkit-transform: translate(22.5px, 22.5px) rotate(0deg) translate(-22.5px, -22.5px);transform: translate(22.5px, 22.5px) rotate(0deg) translate(-22.5px, -22.5px);}23.33%{-webkit-transform: translate(22.5px, 22.5px) rotate(-45deg) translate(-22.5px, -22.5px);transform: translate(22.5px, 22.5px) rotate(-45deg) translate(-22.5px, -22.5px);}36.67%{-webkit-transform: translate(22.5px, 22.5px) rotate(45deg) translate(-22.5px, -22.5px);transform: translate(22.5px, 22.5px) rotate(45deg) translate(-22.5px, -22.5px);}50%{-webkit-transform: translate(22.5px, 22.5px) rotate(0deg) translate(-22.5px, -22.5px);transform: translate(22.5px, 22.5px) rotate(0deg) translate(-22.5px, -22.5px);}0%{-webkit-transform: translate(22.5px, 22.5px) rotate(0deg) translate(-22.5px, -22.5px);transform: translate(22.5px, 22.5px) rotate(0deg) translate(-22.5px, -22.5px);}100%{-webkit-transform: translate(22.5px, 22.5px) rotate(0deg) translate(-22.5px, -22.5px);transform: translate(22.5px, 22.5px) rotate(0deg) translate(-22.5px, -22.5px);}}@keyframes kf_el_b2b7SB0TDf_an_1QgAnjRx9{8.89%{-webkit-transform: translate(22.5px, 22.5px) rotate(0deg) translate(-22.5px, -22.5px);transform: translate(22.5px, 22.5px) rotate(0deg) translate(-22.5px, -22.5px);}23.33%{-webkit-transform: translate(22.5px, 22.5px) rotate(-45deg) translate(-22.5px, -22.5px);transform: translate(22.5px, 22.5px) rotate(-45deg) translate(-22.5px, -22.5px);}36.67%{-webkit-transform: translate(22.5px, 22.5px) rotate(45deg) translate(-22.5px, -22.5px);transform: translate(22.5px, 22.5px) rotate(45deg) translate(-22.5px, -22.5px);}50%{-webkit-transform: translate(22.5px, 22.5px) rotate(0deg) translate(-22.5px, -22.5px);transform: translate(22.5px, 22.5px) rotate(0deg) translate(-22.5px, -22.5px);}0%{-webkit-transform: translate(22.5px, 22.5px) rotate(0deg) translate(-22.5px, -22.5px);transform: translate(22.5px, 22.5px) rotate(0deg) translate(-22.5px, -22.5px);}100%{-webkit-transform: translate(22.5px, 22.5px) rotate(0deg) translate(-22.5px, -22.5px);transform: translate(22.5px, 22.5px) rotate(0deg) translate(-22.5px, -22.5px);}}@-webkit-keyframes kf_el_b2b7SB0TDf_an_98Ov6tmHP{0%{-webkit-transform: translate(22.5px, 22.5px) translate(-22.5px, -22.5px) translate(-30px, 0px);transform: translate(22.5px, 22.5px) translate(-22.5px, -22.5px) translate(-30px, 0px);}8.89%{-webkit-transform: translate(22.5px, 22.5px) translate(-22.5px, -22.5px) translate(0px, 0px);transform: translate(22.5px, 22.5px) translate(-22.5px, -22.5px) translate(0px, 0px);}100%{-webkit-transform: translate(22.5px, 22.5px) translate(-22.5px, -22.5px) translate(0px, 0px);transform: translate(22.5px, 22.5px) translate(-22.5px, -22.5px) translate(0px, 0px);}}@keyframes kf_el_b2b7SB0TDf_an_98Ov6tmHP{0%{-webkit-transform: translate(22.5px, 22.5px) translate(-22.5px, -22.5px) translate(-30px, 0px);transform: translate(22.5px, 22.5px) translate(-22.5px, -22.5px) translate(-30px, 0px);}8.89%{-webkit-transform: translate(22.5px, 22.5px) translate(-22.5px, -22.5px) translate(0px, 0px);transform: translate(22.5px, 22.5px) translate(-22.5px, -22.5px) translate(0px, 0px);}100%{-webkit-transform: translate(22.5px, 22.5px) translate(-22.5px, -22.5px) translate(0px, 0px);transform: translate(22.5px, 22.5px) translate(-22.5px, -22.5px) translate(0px, 0px);}}@-webkit-keyframes kf_el_dZa1rP7u2a_an_aAGT4zlDC{0%{opacity: 0;}50%{opacity: 0;}66.67%{opacity: 1;}100%{opacity: 1;}}@keyframes kf_el_dZa1rP7u2a_an_aAGT4zlDC{0%{opacity: 0;}50%{opacity: 0;}66.67%{opacity: 1;}100%{opacity: 1;}}#el_V4ButBp7e *{-webkit-animation-duration: 3s;animation-duration: 3s;-webkit-animation-iteration-count: 1;animation-iteration-count: 1;-webkit-animation-timing-function: cubic-bezier(0, 0, 1, 1);animation-timing-function: cubic-bezier(0, 0, 1, 1);}#el_b2b7SB0TDf{fill: #000;}#el_dZa1rP7u2a{opacity: 0;-webkit-animation-fill-mode: forwards;animation-fill-mode: forwards;-webkit-animation-name: kf_el_dZa1rP7u2a_an_aAGT4zlDC;animation-name: kf_el_dZa1rP7u2a_an_aAGT4zlDC;-webkit-animation-timing-function: cubic-bezier(0, 0, 1, 1);animation-timing-function: cubic-bezier(0, 0, 1, 1);}#el_JCcmOGTKCS{fill: #000;}#el_HlUxJ1Yt5O{fill: #000;}#el__cmPNBsywl{fill: #000;}#el_iqMx7wcQfM{fill: #000;}#el_W9eqLlVLej{fill: #000;}#el_dAl69_PMge{fill: #000;}#el_ugOXXaKB40{fill: #000;}#el_cxqbwMTwSY{fill: #000;}#el_XL13KYaM7V{fill: #000;}#el_WLC-1AdHb6{fill: #000;}#el_b2b7SB0TDf_an_98Ov6tmHP{-webkit-animation-fill-mode: forwards;animation-fill-mode: forwards;-webkit-transform: translate(22.5px, 22.5px) translate(-22.5px, -22.5px) translate(-30px, 0px);transform: translate(22.5px, 22.5px) translate(-22.5px, -22.5px) translate(-30px, 0px);-webkit-animation-name: kf_el_b2b7SB0TDf_an_98Ov6tmHP;animation-name: kf_el_b2b7SB0TDf_an_98Ov6tmHP;-webkit-animation-timing-function: cubic-bezier(0, 0, 1, 1);animation-timing-function: cubic-bezier(0, 0, 1, 1);}#el_b2b7SB0TDf_an_1QgAnjRx9{-webkit-animation-fill-mode: forwards;animation-fill-mode: forwards;-webkit-transform: translate(22.5px, 22.5px) rotate(0deg) translate(-22.5px, -22.5px);transform: translate(22.5px, 22.5px) rotate(0deg) translate(-22.5px, -22.5px);-webkit-animation-name: kf_el_b2b7SB0TDf_an_1QgAnjRx9;animation-name: kf_el_b2b7SB0TDf_an_1QgAnjRx9;-webkit-animation-timing-function: cubic-bezier(0, 0, 1, 1);animation-timing-function: cubic-bezier(0, 0, 1, 1);}</style><defs/><title>Asset 5</title><g id="el_7f-ghlEVCW" data-name="Layer 2"><g id="el_SdVl47GoxQ" data-name="Layer 1"><g id="el_b2b7SB0TDf_an_98Ov6tmHP" data-animator-group="true" data-animator-type="0"><g id="el_b2b7SB0TDf_an_1QgAnjRx9" data-animator-group="true" data-animator-type="1"><path d="M22.5,0A22.5,22.5,0,1,0,45,22.5,22.5,22.5,0,0,0,22.5,0ZM15.2,32.27a3.57,3.57,0,0,1-3.25.81c-.3,0-.3-.24-.14-.44s.46-.52.7-.79c1-1.21,2-2.4,2.85-3.69a25.63,25.63,0,0,0,1.83-3.07,3.73,3.73,0,0,0,0-3.47,26.64,26.64,0,0,0-2.86-4.46c-.61-.8-1.25-1.57-1.88-2.36-.21-.23-.43-.45-.62-.7s-.1-.41.18-.45a3.81,3.81,0,0,1,3.42,1,78.17,78.17,0,0,1,5.38,5.7,10.32,10.32,0,0,1,1.32,2A2.19,2.19,0,0,1,22,24.63,12.47,12.47,0,0,1,20,27.31C18.5,29,16.86,30.67,15.2,32.27Zm17.53-8A17.92,17.92,0,0,1,30,28.07c-2.17,2.45-4.5,4.75-6.85,7a5.08,5.08,0,0,1-4.61,1.14c-.42-.06-.42-.34-.19-.62s.65-.74,1-1.12c1.38-1.72,2.8-3.4,4-5.23A34.64,34.64,0,0,0,26,24.92,5.31,5.31,0,0,0,26,20a38.83,38.83,0,0,0-4.06-6.32c-.86-1.13-1.77-2.22-2.66-3.33-.3-.33-.61-.65-.88-1s-.14-.59.26-.64a5.34,5.34,0,0,1,4.85,1.43c2.61,2.63,5.28,5.19,7.62,8.07a14.62,14.62,0,0,1,1.86,2.86A3.1,3.1,0,0,1,32.73,24.27Z" id="el_b2b7SB0TDf"/></g></g><g id="el_dZa1rP7u2a"><path d="M57.61,38V9.89h11.9a8,8,0,0,1,3.58.81,9.29,9.29,0,0,1,2.82,2.13,10,10,0,0,1,1.86,3,9,9,0,0,1,.68,3.38,9.77,9.77,0,0,1-.64,3.46,9.5,9.5,0,0,1-1.78,3,8.62,8.62,0,0,1-2.77,2.09,7.93,7.93,0,0,1-3.55.79H63.06V38Zm5.45-14.19h6.33a3.12,3.12,0,0,0,2.51-1.23,5.06,5.06,0,0,0,1-3.32,5.52,5.52,0,0,0-.32-1.92,4.81,4.81,0,0,0-.83-1.44,3.25,3.25,0,0,0-1.2-.89,3.54,3.54,0,0,0-1.41-.3H63.06Z" id="el_JCcmOGTKCS"/><path d="M101,38h-5.3V26.34a5.91,5.91,0,0,0-.9-3.62,3.08,3.08,0,0,0-2.57-1.17,4.1,4.1,0,0,0-1.51.32,5.94,5.94,0,0,0-1.5.89,8.08,8.08,0,0,0-1.31,1.36A5.44,5.44,0,0,0,87,25.86V38h-5.3V9.1H87v12a7.83,7.83,0,0,1,3.1-3.1,8.7,8.7,0,0,1,4.33-1.09,6.82,6.82,0,0,1,3.28.69,5.25,5.25,0,0,1,2,1.84,7.7,7.7,0,0,1,1,2.61,16.49,16.49,0,0,1,.27,3Z" id="el_HlUxJ1Yt5O"/><path d="M115.18,38.36a11.36,11.36,0,0,1-4.55-.87,10.18,10.18,0,0,1-5.58-5.77,11.55,11.55,0,0,1,0-8.19,10.18,10.18,0,0,1,5.58-5.77,12.28,12.28,0,0,1,9.08,0,10.29,10.29,0,0,1,3.4,2.35,10.48,10.48,0,0,1,2.15,3.42,11.55,11.55,0,0,1,0,8.19,10.6,10.6,0,0,1-2.13,3.42,10.17,10.17,0,0,1-3.41,2.35A11.35,11.35,0,0,1,115.18,38.36Zm-5.42-10.72a7.11,7.11,0,0,0,.42,2.51,5.85,5.85,0,0,0,1.14,2A5.3,5.3,0,0,0,113,33.4a5.29,5.29,0,0,0,4.27,0A5.19,5.19,0,0,0,119,32.11a6,6,0,0,0,1.15-2,7.89,7.89,0,0,0,0-5,6.09,6.09,0,0,0-1.15-2,4.94,4.94,0,0,0-1.72-1.29,5.09,5.09,0,0,0-2.13-.45,4.82,4.82,0,0,0-2.14.47,5.47,5.47,0,0,0-1.72,1.3,6,6,0,0,0-1.14,2A7.23,7.23,0,0,0,109.76,27.64Z" id="el__cmPNBsywl"/><path d="M137.4,38.36a16.12,16.12,0,0,1-5.1-.83A12.62,12.62,0,0,1,128,35.16l2-3.33a16.67,16.67,0,0,0,3.69,2,9.93,9.93,0,0,0,3.58.69,4.45,4.45,0,0,0,2.49-.59,1.91,1.91,0,0,0,.91-1.7,1.68,1.68,0,0,0-1.07-1.62,23.34,23.34,0,0,0-3.48-1.19c-1.34-.37-2.49-.72-3.44-1.07a9,9,0,0,1-2.29-1.16,4,4,0,0,1-1.26-1.5,4.73,4.73,0,0,1-.4-2,6.44,6.44,0,0,1,.61-2.85,6.3,6.3,0,0,1,1.72-2.15,7.92,7.92,0,0,1,2.59-1.37,10.73,10.73,0,0,1,3.23-.47,13.84,13.84,0,0,1,4.37.67A10.57,10.57,0,0,1,145,19.7l-2.13,3.2a12.57,12.57,0,0,0-3.07-1.74,8.36,8.36,0,0,0-2.94-.56,4.28,4.28,0,0,0-2.26.56,1.94,1.94,0,0,0-.91,1.78,1.78,1.78,0,0,0,.22.91,2,2,0,0,0,.69.63,7,7,0,0,0,1.25.53c.51.18,1.15.35,1.92.54,1.42.37,2.64.74,3.65,1.1a9.94,9.94,0,0,1,2.49,1.27,4.51,4.51,0,0,1,1.43,1.64,5.07,5.07,0,0,1,.45,2.23,5.76,5.76,0,0,1-2.25,4.81A9.73,9.73,0,0,1,137.4,38.36Z" id="el_iqMx7wcQfM"/><path d="M172.43,38V19.38L165.2,33.22h-3L155,19.38V38h-5.46V9.89h5.85l8.3,16,8.39-16h5.81V38Z" id="el_W9eqLlVLej"/><path d="M192.52,38.36a11.39,11.39,0,0,1-4.55-.87,10.12,10.12,0,0,1-5.57-5.77,11.55,11.55,0,0,1,0-8.19,10.48,10.48,0,0,1,2.15-3.42A10.27,10.27,0,0,1,188,17.76a11.39,11.39,0,0,1,4.55-.87,11.23,11.23,0,0,1,4.53.87,10.29,10.29,0,0,1,3.4,2.35,10.48,10.48,0,0,1,2.15,3.42,11.55,11.55,0,0,1,0,8.19,10.6,10.6,0,0,1-2.13,3.42,10.13,10.13,0,0,1-3.4,2.35A11.39,11.39,0,0,1,192.52,38.36ZM187.1,27.64a7.11,7.11,0,0,0,.42,2.51,6,6,0,0,0,1.15,2,5.26,5.26,0,0,0,1.71,1.29,5.31,5.31,0,0,0,4.28,0,5.4,5.4,0,0,0,1.72-1.29,6,6,0,0,0,1.14-2,7.71,7.71,0,0,0,0-5,6.07,6.07,0,0,0-1.14-2,5,5,0,0,0-3.86-1.74,4.85,4.85,0,0,0-2.14.47,5.43,5.43,0,0,0-1.71,1.3,6.25,6.25,0,0,0-1.15,2A7.23,7.23,0,0,0,187.1,27.64Z" id="el_dAl69_PMge"/><path d="M218.7,38.36a8.31,8.31,0,0,1-4.23-1.07,7.82,7.82,0,0,1-2.93-2.92V38h-4.63V9.1h5.3V20.88a8,8,0,0,1,2.91-2.94,8.2,8.2,0,0,1,4.21-1.05,7.83,7.83,0,0,1,3.68.87,9.31,9.31,0,0,1,2.86,2.33,10.37,10.37,0,0,1,1.86,3.44,13,13,0,0,1,.65,4.15,11.71,11.71,0,0,1-.73,4.19,10.44,10.44,0,0,1-2,3.38,9.55,9.55,0,0,1-3.09,2.28A9,9,0,0,1,218.7,38.36Zm-1.47-4.51A5.47,5.47,0,0,0,221.38,32a5.85,5.85,0,0,0,1.17-1.94,6.56,6.56,0,0,0,.42-2.37,7.21,7.21,0,0,0-.4-2.41,6.24,6.24,0,0,0-1.13-2,5.46,5.46,0,0,0-1.72-1.38,4.63,4.63,0,0,0-2.17-.51,4.8,4.8,0,0,0-3.18,1.16,7.76,7.76,0,0,0-2.16,2.87v4.94a4.64,4.64,0,0,0,.81,1.42,5.67,5.67,0,0,0,1.21,1.09,5.49,5.49,0,0,0,1.46.71A4.74,4.74,0,0,0,217.23,33.85Z" id="el_ugOXXaKB40"/><path d="M232,14.36V9.1h5.3v5.26ZM232,38V17.24h5.3V38Z" id="el_cxqbwMTwSY"/><path d="M242,9.1h5.3V31.32a2.6,2.6,0,0,0,.56,1.78,2,2,0,0,0,1.58.63,3.83,3.83,0,0,0,1-.16,6.29,6.29,0,0,0,1.08-.39l.72,4a9.92,9.92,0,0,1-2.5.79,13.06,13.06,0,0,1-2.57.28A5.31,5.31,0,0,1,243.39,37,5,5,0,0,1,242,33.18Z" id="el_XL13KYaM7V"/><path d="M264.21,38.36a11.44,11.44,0,0,1-4.51-.85,10.16,10.16,0,0,1-5.64-5.72,11,11,0,0,1-.77-4.07,11.59,11.59,0,0,1,.75-4.17,10.23,10.23,0,0,1,2.18-3.44,10.34,10.34,0,0,1,3.46-2.35,11.53,11.53,0,0,1,4.57-.87,11.21,11.21,0,0,1,4.52.87,10.44,10.44,0,0,1,3.4,2.33,10,10,0,0,1,2.14,3.4,11.28,11.28,0,0,1,.73,4c0,.35,0,.68,0,1a3.92,3.92,0,0,1-.1.79h-16a6.09,6.09,0,0,0,.59,2.18,5.51,5.51,0,0,0,1.23,1.62,5.27,5.27,0,0,0,1.7,1,5.49,5.49,0,0,0,2,.35,6.06,6.06,0,0,0,3-.77,4.13,4.13,0,0,0,1.92-2l4.54,1.26a9.27,9.27,0,0,1-3.65,3.9A11.39,11.39,0,0,1,264.21,38.36Zm5.37-12.5a5.46,5.46,0,0,0-1.72-3.73,5.22,5.22,0,0,0-3.69-1.41,5.31,5.31,0,0,0-2,.38,5.12,5.12,0,0,0-1.64,1,5.52,5.52,0,0,0-1.17,1.62,5.7,5.7,0,0,0-.53,2.09Z" id="el_WLC-1AdHb6"/></g></g></g></svg>